<?xml version="1.0" standalone="no"?>
<!DOCTYPE svg PUBLIC "-//W3C//DTD SVG 20010904//EN"
 "http://www.w3.org/TR/2001/REC-SVG-20010904/DTD/svg10.dtd">
<svg version="1.0" xmlns="http://www.w3.org/2000/svg"
 width="900.000000pt" height="900.000000pt" viewBox="0 0 900.000000 900.000000"
 preserveAspectRatio="xMidYMid meet">

<g transform="translate(0.000000,900.000000) scale(0.100000,-0.100000)"
fill="#000000" stroke="none">
<path d="M2860 7304 c-445 -33 -860 -193 -1200 -464 -105 -84 -297 -280 -371
-380 -170 -227 -297 -488 -363 -744 -132 -504 -77 -1037 154 -1495 323 -645
943 -1082 1660 -1171 109 -13 391 -13 500 0 418 52 831 235 1144 505 l88 77
77 -74 c327 -321 766 -530 1231 -588 109 -13 391 -13 500 0 323 40 657 162
920 337 771 511 1126 1437 894 2329 -66 256 -193 517 -363 744 -74 100 -266
296 -371 380 -235 187 -518 328 -807 401 -336 85 -716 85 -1049 -1 -339 -88
-680 -272 -912 -494 l-42 -40 -83 80 c-262 258 -587 440 -950 534 -190 48
-479 77 -657 64z m1039 -988 c25 -30 30 -87 33 -411 2 -242 -1 -338 -9 -346
-19 -19 -171 -39 -308 -39 -112 0 -134 3 -162 20 -18 11 -33 28 -34 37 -4 117
-18 197 -34 210 -25 17 -122 17 -210 -2 -53 -11 -106 -13 -221 -8 -86 3 -153
2 -155 -3 -3 -5 -2 -95 1 -200 4 -141 9 -195 19 -207 12 -15 45 -17 287 -17
200 0 275 -3 280 -12 7 -10 7 -70 2 -233 -1 -22 2 -86 7 -142 7 -88 6 -106 -9
-128 l-16 -25 -268 0 c-152 0 -273 -4 -282 -10 -12 -8 -14 -32 -12 -137 4
-167 0 -163 147 -163 94 0 114 -3 128 -18 24 -26 30 -444 6 -467 -28 -29 -137
-35 -647 -35 l-503 0 -23 23 c-24 24 -43 118 -32 154 3 10 7 80 10 156 6 186
7 187 126 187 124 0 130 6 130 143 0 56 0 332 0 612 0 601 14 545 -130 545
-128 0 -123 -11 -123 259 0 189 2 223 17 245 l16 26 979 0 c828 0 980 -2 990
-14z m3207 -92 c15 -22 17 -56 17 -245 0 -270 5 -259 -123 -259 -144 0 -130
56 -130 -545 0 -280 0 -556 0 -612 0 -137 6 -143 130 -143 119 0 120 -1 126
-187 3 -76 7 -146 10 -156 11 -36 -8 -130 -32 -154 l-23 -23 -503 0 c-510 0
-619 6 -647 35 -24 23 -18 441 6 467 14 15 34 18 128 18 147 0 143 -4 147 163
2 105 0 129 -12 137 -9 6 -130 10 -282 10 l-268 0 -16 25 c-15 22 -16 40 -9
128 5 56 8 120 7 142 -5 163 -5 223 2 233 5 9 80 12 280 12 242 0 275 2 287
17 10 12 15 66 19 207 3 105 4 195 1 200 -2 5 -69 6 -155 3 -115 -5 -168 -3
-221 8 -88 19 -185 19 -210 2 -16 -13 -30 -93 -34 -210 -1 -9 -16 -26 -33 -37
-29 -17 -51 -20 -163 -20 -137 0 -289 20 -308 39 -14 14 -11 663 3 712 19 64
-59 59 1011 59 l979 0 16 -26z"/>
<path d="M2493 2419 c-83 -26 -159 -96 -199 -181 -27 -58 -29 -72 -29 -183 0
-111 2 -125 29 -182 32 -71 95 -135 159 -163 153 -67 363 -42 455 53 38 39 68
106 77 170 l7 47 -86 0 -86 0 0 -27 c0 -38 -34 -91 -66 -103 -65 -25 -123 -1
-149 62 -21 52 -25 223 -6 280 22 67 94 98 154 67 28 -15 35 -25 47 -71 l11
-38 79 0 80 0 0 135 0 135 -75 0 c-62 0 -75 -3 -75 -16 0 -12 -5 -14 -17 -9
-114 50 -207 57 -310 24z"/>
<path d="M7366 2424 c-97 -30 -168 -93 -213 -189 -25 -54 -28 -70 -28 -170 0
-125 12 -173 58 -241 71 -106 168 -149 332 -149 89 0 107 4 163 29 99 46 154
119 168 227 l7 50 -84 -3 -84 -3 -6 -39 c-9 -52 -56 -96 -104 -96 -87 0 -118
45 -123 182 -6 134 3 185 38 220 59 59 160 27 175 -56 l7 -36 79 0 79 0 0 135
0 135 -75 0 c-62 0 -75 -3 -75 -16 0 -12 -5 -14 -17 -9 -108 47 -206 57 -297
29z"/>
<path d="M4415 2416 c-75 -20 -99 -32 -139 -67 -49 -43 -66 -78 -66 -138 0
-42 5 -56 29 -83 27 -31 34 -33 91 -33 55 0 64 3 86 28 31 37 31 81 -1 112
-13 14 -30 25 -37 26 -35 2 54 28 98 29 70 0 118 -31 122 -81 4 -48 -28 -86
-110 -129 -187 -98 -259 -185 -275 -330 l-6 -60 52 0 c38 0 60 6 78 20 33 26
60 25 190 -6 232 -56 337 0 351 186 l5 70 -45 0 c-43 0 -46 -2 -52 -30 -8 -44
-44 -55 -129 -41 -132 22 -201 9 -259 -46 -33 -32 -46 -25 -23 11 23 35 94 80
157 99 29 9 92 27 139 41 133 40 191 90 204 180 15 96 -34 175 -137 221 -54
24 -78 29 -168 32 -65 1 -124 -3 -155 -11z"/>
<path d="M270 2330 c0 -89 0 -90 25 -90 14 0 34 -9 45 -20 18 -18 20 -33 20
-154 0 -161 -6 -182 -55 -192 l-35 -6 0 -89 0 -89 240 0 240 0 0 90 0 90 -35
0 c-52 0 -75 28 -75 90 l0 50 80 0 80 0 0 40 0 40 -80 0 -80 0 0 75 0 75 59 0
c51 0 62 -3 75 -22 9 -12 16 -35 16 -51 l0 -28 83 3 82 3 3 138 3 137 -346 0
-345 0 0 -90z"/>
<path d="M1360 2331 l0 -88 30 -6 c17 -4 30 -12 30 -20 0 -7 -27 -80 -60 -163
-59 -146 -84 -184 -121 -184 -17 0 -19 -8 -19 -90 l0 -90 150 0 150 0 0 90 c0
88 -1 90 -24 90 -32 0 -50 24 -42 55 6 25 8 26 88 23 73 -3 82 -5 89 -25 10
-28 -12 -53 -47 -53 -24 0 -24 -1 -24 -90 l0 -90 225 0 225 0 0 88 0 88 -37
10 c-36 9 -37 11 -100 164 -35 85 -62 164 -61 175 2 13 12 21 31 23 l27 3 0
90 0 89 -255 0 -255 0 0 -89z m211 -218 c12 -38 24 -74 27 -80 3 -10 -11 -13
-52 -13 -31 0 -56 4 -56 8 0 7 26 89 45 140 8 21 13 14 36 -55z"/>
<path d="M3260 2330 c0 -89 0 -90 24 -90 50 0 56 -18 56 -184 0 -164 -1 -168
-53 -181 -27 -7 -27 -7 -27 -96 l0 -89 350 0 350 0 0 135 0 135 -85 0 -85 0 0
-29 c0 -42 -32 -61 -102 -61 l-58 0 0 75 0 75 80 0 80 0 0 40 0 40 -80 0 -80
0 0 70 0 70 63 0 c72 0 94 -12 99 -55 l3 -30 83 -3 82 -3 0 136 0 135 -350 0
-350 0 0 -90z"/>
<path d="M5140 2330 c0 -89 0 -90 24 -90 50 0 56 -18 56 -184 0 -164 -1 -168
-53 -181 -27 -7 -27 -7 -27 -96 l0 -89 240 0 240 0 0 89 0 88 -46 6 c-26 2
-50 11 -55 18 -5 8 -9 38 -9 67 l0 52 80 0 80 0 0 40 0 40 -80 0 -80 0 0 75 0
75 53 0 c66 0 78 -9 86 -56 l6 -39 83 -3 82 -3 0 141 0 140 -340 0 -340 0 0
-90z"/>
<path d="M6230 2331 c0 -85 1 -90 23 -93 14 -2 23 -11 25 -24 4 -28 -113 -315
-135 -331 -9 -7 -27 -13 -40 -13 -22 0 -23 -3 -23 -90 l0 -90 150 0 150 0 0
89 0 89 -29 5 c-32 7 -42 24 -34 56 5 19 12 21 89 21 82 0 84 0 90 -27 8 -29
-14 -53 -48 -53 -16 0 -18 -10 -18 -90 l0 -90 220 0 220 0 0 90 c0 82 -2 90
-19 90 -37 0 -61 37 -121 189 -63 159 -65 181 -19 181 17 0 19 9 19 90 l0 90
-250 0 -250 0 0 -89z m209 -230 c11 -36 21 -69 21 -73 0 -4 -25 -8 -56 -8 -41
0 -55 3 -52 13 3 6 15 43 28 80 12 38 26 65 30 60 4 -4 17 -37 29 -72z"/>
<path d="M8120 2330 c0 -84 1 -90 21 -90 11 0 29 -5 40 -10 18 -10 19 -23 19
-175 l0 -164 -40 -12 -40 -12 0 -89 0 -88 350 0 350 0 0 135 0 135 -79 0 -79
0 -6 -35 c-8 -43 -33 -55 -112 -55 l-54 0 0 75 0 75 80 0 80 0 0 40 0 40 -80
0 -80 0 0 70 0 70 69 0 c61 0 72 -3 85 -22 9 -12 16 -33 16 -45 0 -22 3 -23
80 -23 l80 0 0 135 0 135 -350 0 -350 0 0 -90z"/>
</g>
</svg>
